# xmcd
#
# Track frame offsets:
#	182
#	13002
#	26152
#	39667
#	52395
#	64195
#	76752
#	85427
#
# Disc length: 1299 seconds
#
# Revision: 0
# Processed by: cddbd v1.4b42PL1 Copyright (c) Steve Scherf et al.
# Submitted via: EasyCDDAExtractor 4.5.0.2
#
DISCID=68051108
DTITLE=Old Dogs - Greatest Hits
DYEAR=1998
DGENRE=Country
TTITLE0=East Bound And Down
TTITLE1=Detroit City
TTITLE2=Mamas Don't Let Your Babies Grow Up To Be Cowboys
TTITLE3=Ruby, Don't Take Your Love To Town
TTITLE4=Amos Moses
TTITLE5=Five Hundred Miles Away From Home
TTITLE6=Bob Wills Is Still The King
TTITLE7=I Ain't Never
EXTD=
EXTT0=
EXTT1=
EXTT2=
EXTT3=
EXTT4=
EXTT5=
EXTT6=
EXTT7=
PLAYORDER=
